<svg width="20" height="20" viewBox="0 0 20 20" fill="none" xmlns="http://www.w3.org/2000/svg">
<g clip-path="url(#clip0_36_7685)">
<path d="M9.96308 5.97816C11.2529 5.97816 12.2985 4.93257 12.2985 3.64277C12.2985 2.35296 11.2529 1.30737 9.96308 1.30737C8.67328 1.30737 7.62769 2.35296 7.62769 3.64277C7.62769 4.93257 8.67328 5.97816 9.96308 5.97816Z" fill="url(#paint0_linear_36_7685)"/>
<path d="M18.1383 10.068L15.9617 9.61399C15.2202 9.45865 14.4881 9.79853 14.101 10.4028C13.7251 10.2097 13.3208 10.0432 12.8908 9.90496V8.61066C12.8917 7.63137 12.09 6.83057 11.1142 6.83057H8.88863C7.90762 6.83057 7.10941 7.63137 7.10941 8.61066V9.91181C6.6837 10.0474 6.28374 10.2139 5.90523 10.4079C5.51816 9.80108 4.78516 9.45865 4.04273 9.61399L1.86439 10.068C0.908251 10.268 0.287698 11.2164 0.487679 12.176L1.03442 14.7877C1.23269 15.7447 2.18195 16.3653 3.13896 16.1653L3.82815 16.0211C4.17316 16.5309 4.65039 16.9987 5.26148 17.3986C6.5343 18.2329 8.21571 18.6929 10.0001 18.6929C12.7303 18.6929 15.082 17.5952 16.1651 16.0185L16.8655 16.1653C17.8216 16.3644 18.7709 15.7447 18.9692 14.7877L19.5167 12.176C19.7158 11.2164 19.0953 10.268 18.1383 10.068ZM9.99919 17.8012C8.38732 17.8012 6.87672 17.3952 5.74981 16.6528C5.36358 16.4004 5.04343 16.1198 4.78683 15.8194L5.31468 15.7087C6.27252 15.5096 6.89308 14.5611 6.6931 13.6033L6.20301 11.255C6.48882 11.1014 6.78923 10.9666 7.1085 10.8516V11.2799C7.1085 12.2575 7.90842 13.0583 8.88771 13.0583H11.1132C12.09 13.0583 12.8899 12.2567 12.8899 11.2799V10.8293C13.2152 10.9452 13.5207 11.0782 13.804 11.2293L13.307 13.6042C13.1088 14.562 13.7284 15.5104 14.6863 15.7095L15.2193 15.8211C14.2254 16.9978 12.2591 17.8012 9.99919 17.8012Z" fill="url(#paint1_linear_36_7685)"/>
<path d="M17.6645 9.04822C18.9543 9.04822 19.9999 8.00263 19.9999 6.71283C19.9999 5.42303 18.9543 4.37744 17.6645 4.37744C16.3747 4.37744 15.3291 5.42303 15.3291 6.71283C15.3291 8.00263 16.3747 9.04822 17.6645 9.04822Z" fill="url(#paint2_linear_36_7685)"/>
<path d="M2.81432 8.99941C4.07771 8.73505 4.88451 7.49657 4.62358 6.23402C4.35751 4.97234 3.12157 4.16211 1.85731 4.42647C0.595628 4.68995 -0.214601 5.9276 0.0497589 7.19015C0.313283 8.45354 1.55093 9.26293 2.81432 8.99941Z" fill="url(#paint3_linear_36_7685)"/>
</g>
<defs>
<linearGradient id="paint0_linear_36_7685" x1="8.11867" y1="1.30737" x2="12.8928" y2="4.16462" gradientUnits="userSpaceOnUse">
<stop stop-color="#403F67"/>
<stop offset="1" stop-color="#007F92"/>
</linearGradient>
<linearGradient id="paint1_linear_36_7685" x1="2.45836" y1="6.83057" x2="16.2071" y2="20.0819" gradientUnits="userSpaceOnUse">
<stop stop-color="#403F67"/>
<stop offset="1" stop-color="#007F92"/>
</linearGradient>
<linearGradient id="paint2_linear_36_7685" x1="15.8201" y1="4.37744" x2="20.5943" y2="7.23469" gradientUnits="userSpaceOnUse">
<stop stop-color="#403F67"/>
<stop offset="1" stop-color="#007F92"/>
</linearGradient>
<linearGradient id="paint3_linear_36_7685" x1="0.490959" y1="4.37646" x2="5.26715" y2="7.23499" gradientUnits="userSpaceOnUse">
<stop stop-color="#403F67"/>
<stop offset="1" stop-color="#007F92"/>
</linearGradient>
<clipPath id="clip0_36_7685">
<rect width="20" height="20" fill="white"/>
</clipPath>
</defs>
</svg>
