<svg width="18" height="18" viewBox="0 0 18 18" fill="none" xmlns="http://www.w3.org/2000/svg">
<path d="M13.1666 10.6667C13.6268 10.6667 13.9999 10.2936 13.9999 9.83333C13.9999 9.37308 13.6268 9 13.1666 9C12.7063 9 12.3333 9.37308 12.3333 9.83333C12.3333 10.2936 12.7063 10.6667 13.1666 10.6667Z" fill="url(#paint0_linear_36_7673)"/>
<path d="M13.1666 13.9999C13.6268 13.9999 13.9999 13.6268 13.9999 13.1666C13.9999 12.7063 13.6268 12.3333 13.1666 12.3333C12.7063 12.3333 12.3333 12.7063 12.3333 13.1666C12.3333 13.6268 12.7063 13.9999 13.1666 13.9999Z" fill="url(#paint1_linear_36_7673)"/>
<path d="M9.83329 9.83333C9.83329 10.2936 9.46021 10.6667 8.99996 10.6667C8.53971 10.6667 8.16663 10.2936 8.16663 9.83333C8.16663 9.37308 8.53971 9 8.99996 9C9.46021 9 9.83329 9.37308 9.83329 9.83333Z" fill="url(#paint2_linear_36_7673)"/>
<path d="M9.83329 13.1666C9.83329 13.6268 9.46021 13.9999 8.99996 13.9999C8.53971 13.9999 8.16663 13.6268 8.16663 13.1666C8.16663 12.7063 8.53971 12.3333 8.99996 12.3333C9.46021 12.3333 9.83329 12.7063 9.83329 13.1666Z" fill="url(#paint3_linear_36_7673)"/>
<path d="M4.83333 10.6667C5.29357 10.6667 5.66667 10.2936 5.66667 9.83333C5.66667 9.37308 5.29357 9 4.83333 9C4.3731 9 4 9.37308 4 9.83333C4 10.2936 4.3731 10.6667 4.83333 10.6667Z" fill="url(#paint4_linear_36_7673)"/>
<path d="M4.83333 13.9999C5.29357 13.9999 5.66667 13.6268 5.66667 13.1666C5.66667 12.7063 5.29357 12.3333 4.83333 12.3333C4.3731 12.3333 4 12.7063 4 13.1666C4 13.6268 4.3731 13.9999 4.83333 13.9999Z" fill="url(#paint5_linear_36_7673)"/>
<path fill-rule="evenodd" clip-rule="evenodd" d="M4.83329 0.458252C5.17847 0.458252 5.45829 0.738077 5.45829 1.08325V1.71885C6.00996 1.70824 6.61774 1.70824 7.28618 1.70825H10.7136C11.3821 1.70824 11.99 1.70824 12.5416 1.71885V1.08325C12.5416 0.738077 12.8215 0.458252 13.1666 0.458252C13.5118 0.458252 13.7916 0.738077 13.7916 1.08325V1.77249C14.0082 1.78901 14.2134 1.80977 14.4075 1.83586C15.3845 1.96722 16.1753 2.24399 16.799 2.86762C17.4225 3.49126 17.6993 4.28204 17.8307 5.25907C17.9583 6.2084 17.9583 7.42142 17.9583 8.95284V10.7136C17.9583 12.245 17.9583 13.4581 17.8307 14.4074C17.6993 15.3844 17.4225 16.1753 16.799 16.7989C16.1753 17.4225 15.3845 17.6993 14.4075 17.8307C13.4581 17.9583 12.2451 17.9583 10.7137 17.9583H7.28629C5.75484 17.9583 4.54178 17.9583 3.59244 17.8307C2.61543 17.6993 1.82463 17.4225 1.20099 16.7989C0.57736 16.1753 0.300593 15.3844 0.169243 14.4074C0.0416013 13.4581 0.0416097 12.2451 0.0416264 10.7136V8.95292C0.0416097 7.42142 0.0416013 6.20841 0.169243 5.25907C0.300593 4.28204 0.57736 3.49126 1.20099 2.86762C1.82463 2.24399 2.61543 1.96722 3.59244 1.83586C3.78654 1.80977 3.99168 1.78901 4.20829 1.77249V1.08325C4.20829 0.738077 4.48812 0.458252 4.83329 0.458252ZM3.759 3.07472C2.92059 3.18744 2.43755 3.39883 2.08488 3.7515C1.7322 4.10418 1.52081 4.58722 1.40809 5.42563C1.389 5.56761 1.37304 5.71709 1.35969 5.87492H16.6402C16.6269 5.71709 16.6109 5.56762 16.5918 5.42563C16.4791 4.58722 16.2677 4.10418 15.915 3.7515C15.5624 3.39883 15.0793 3.18744 14.241 3.07472C13.3845 2.95958 12.2556 2.95825 10.6666 2.95825H7.33329C5.74428 2.95825 4.61539 2.95958 3.759 3.07472ZM1.29163 8.99992C1.29163 8.28825 1.29189 7.66884 1.30253 7.12492H16.6974C16.708 7.66884 16.7083 8.28825 16.7083 8.99992V10.6666C16.7083 12.2556 16.707 13.3845 16.5918 14.2409C16.4791 15.0793 16.2677 15.5623 15.915 15.915C15.5624 16.2677 15.0793 16.4791 14.241 16.5918C13.3845 16.7069 12.2556 16.7083 10.6666 16.7083H7.33329C5.74428 16.7083 4.61539 16.7069 3.759 16.5918C2.92059 16.4791 2.43755 16.2677 2.08488 15.915C1.7322 15.5623 1.52081 15.0793 1.40809 14.2409C1.29295 13.3845 1.29163 12.2556 1.29163 10.6666V8.99992Z" fill="url(#paint6_linear_36_7673)"/>
<defs>
<linearGradient id="paint0_linear_36_7673" x1="12.5085" y1="9" x2="14.212" y2="10.0195" gradientUnits="userSpaceOnUse">
<stop stop-color="#403F67"/>
<stop offset="1" stop-color="#007F92"/>
</linearGradient>
<linearGradient id="paint1_linear_36_7673" x1="12.5085" y1="12.3333" x2="14.212" y2="13.3528" gradientUnits="userSpaceOnUse">
<stop stop-color="#403F67"/>
<stop offset="1" stop-color="#007F92"/>
</linearGradient>
<linearGradient id="paint2_linear_36_7673" x1="8.34182" y1="9" x2="10.0454" y2="10.0195" gradientUnits="userSpaceOnUse">
<stop stop-color="#403F67"/>
<stop offset="1" stop-color="#007F92"/>
</linearGradient>
<linearGradient id="paint3_linear_36_7673" x1="8.34182" y1="12.3333" x2="10.0454" y2="13.3528" gradientUnits="userSpaceOnUse">
<stop stop-color="#403F67"/>
<stop offset="1" stop-color="#007F92"/>
</linearGradient>
<linearGradient id="paint4_linear_36_7673" x1="4.1752" y1="9" x2="5.87876" y2="10.0195" gradientUnits="userSpaceOnUse">
<stop stop-color="#403F67"/>
<stop offset="1" stop-color="#007F92"/>
</linearGradient>
<linearGradient id="paint5_linear_36_7673" x1="4.1752" y1="12.3333" x2="5.87876" y2="13.3528" gradientUnits="userSpaceOnUse">
<stop stop-color="#403F67"/>
<stop offset="1" stop-color="#007F92"/>
</linearGradient>
<linearGradient id="paint6_linear_36_7673" x1="1.92501" y1="0.458252" x2="20.0085" y2="11.5385" gradientUnits="userSpaceOnUse">
<stop stop-color="#403F67"/>
<stop offset="1" stop-color="#007F92"/>
</linearGradient>
</defs>
</svg>
