<svg width="20" height="20" viewBox="0 0 20 20" fill="none" xmlns="http://www.w3.org/2000/svg">
<path d="M16.1006 13.7641C15.6109 13.9105 15.1302 14.1649 14.6465 14.6463L14.6459 14.6468C14.0163 15.2812 13.7688 15.9114 13.6594 16.5619C13.5517 17.2121 13.6049 17.8779 13.6163 18.5149C13.6175 18.6213 13.6181 18.7278 13.6157 18.8333L18.8335 13.6149C18.6679 13.6188 18.5011 13.6164 18.3325 13.6122C17.5989 13.5904 16.833 13.5455 16.1006 13.7641Z" fill="url(#paint0_linear_36_7664)"/>
<path d="M10.0003 0.000244141C4.47699 0.000244141 0 4.47692 0 9.99962C0 15.5229 4.47699 19.9999 10.0003 19.9999C10.8272 19.9999 11.6278 19.8929 12.3966 19.7034C12.4953 19.5943 12.5581 19.4595 12.5988 19.2418C12.64 19.0137 12.6436 18.7097 12.6334 18.3587C12.6167 17.6562 12.5473 16.7659 12.8248 15.8225C13.0095 15.1941 13.3575 14.5484 13.9536 13.9544C13.9536 13.9544 13.9536 13.9541 13.9542 13.9538C14.7333 13.1699 15.6032 12.8211 16.4038 12.6928C17.2055 12.5628 17.9439 12.6297 18.5305 12.6369C18.9209 12.6447 19.2389 12.6208 19.4452 12.5469C19.554 12.5083 19.6324 12.4599 19.7035 12.395C19.893 11.6271 20.0001 10.8262 20.0001 9.99962C20 4.47692 15.523 0.000244141 10.0003 0.000244141ZM6.18606 11.5153L4.76066 11.834C4.73914 11.8387 4.73078 11.8519 4.73586 11.874L5.05961 13.3209C5.06676 13.3532 5.04945 13.3801 5.01715 13.3873L4.48594 13.5063C4.45363 13.5134 4.42672 13.4964 4.41957 13.4641L3.61898 9.88692C3.61184 9.85435 3.62914 9.82774 3.66145 9.82056L5.9702 9.30399C6.00277 9.29681 6.02941 9.31356 6.03688 9.34614L6.1409 9.8122C6.14836 9.84478 6.13137 9.8711 6.09875 9.87856L4.40793 10.2568C4.38641 10.2615 4.37801 10.275 4.38281 10.2968L4.59266 11.2343C4.59742 11.2558 4.61059 11.2642 4.63211 11.2594L6.0575 10.9407C6.09008 10.9333 6.11699 10.9503 6.12414 10.9826L6.22848 11.4486C6.2357 11.4812 6.21863 11.5078 6.18606 11.5153ZM10.2744 12.2109L9.67293 12.3458C9.62957 12.3553 9.60418 12.344 9.57965 12.3096L8.55367 11.031L7.9193 11.1727C7.89777 11.1775 7.88938 11.1909 7.89418 11.2128L8.20836 12.6163C8.21555 12.6489 8.19852 12.6755 8.16621 12.6827L7.635 12.8017C7.60238 12.8088 7.57578 12.7918 7.56863 12.7595L6.76805 9.18235C6.76086 9.15005 6.77793 9.12313 6.81051 9.11599L8.2359 8.79731C8.91332 8.64544 9.5127 8.98384 9.65797 9.63407C9.7659 10.1165 9.57305 10.5524 9.18563 10.8044L10.2968 12.132C10.3267 12.1652 10.3124 12.2025 10.2744 12.2109ZM13.2986 11.5344L10.9898 12.051C10.9575 12.0582 10.9309 12.0414 10.9238 12.0088L10.1235 8.43165C10.116 8.39907 10.133 8.37278 10.1654 8.3656L12.4741 7.84903C12.5067 7.84157 12.5333 7.8586 12.5407 7.89087L12.6448 8.35724C12.6523 8.3895 12.6352 8.41583 12.6026 8.42329L10.9118 8.80142C10.8902 8.80649 10.8819 8.81966 10.8866 8.84149L11.0881 9.74102C11.0929 9.76286 11.1061 9.77122 11.1276 9.76642L12.553 9.44743C12.5855 9.44028 12.6122 9.457 12.6196 9.48958L12.7236 9.95564C12.7311 9.98821 12.7141 10.0148 12.6815 10.022L11.2561 10.3409C11.2346 10.3458 11.2262 10.3589 11.231 10.3807L11.4396 11.3128C11.4444 11.3344 11.4576 11.3431 11.4791 11.3383L13.1699 10.9598C13.2025 10.9526 13.2294 10.9693 13.2366 11.0019L13.3409 11.468C13.3482 11.5004 13.3311 11.5272 13.2986 11.5344ZM16.3881 10.8433L14.0794 11.3598C14.0468 11.367 14.0202 11.3502 14.013 11.3177L13.2127 7.74048C13.2053 7.7079 13.2223 7.68157 13.2549 7.67411L15.5636 7.15786C15.5962 7.1504 15.6225 7.16712 15.63 7.1997L15.734 7.66575C15.7415 7.69833 15.7247 7.72466 15.6922 7.73212L14.0013 8.11024C13.9795 8.11505 13.9711 8.12849 13.9759 8.15032L14.1774 9.04985C14.1822 9.07169 14.1954 9.08005 14.2172 9.07524L15.6426 8.75626C15.6752 8.7488 15.7015 8.76583 15.7089 8.79841L15.813 9.26419C15.8204 9.29708 15.8037 9.32337 15.7711 9.33083L14.3457 9.64981C14.3239 9.65462 14.3155 9.66778 14.3204 9.68927L14.529 10.6214C14.5338 10.6432 14.547 10.6519 14.5688 10.6468L16.2596 10.2686C16.2922 10.2614 16.3188 10.2782 16.326 10.3108L16.4303 10.7768C16.4375 10.8092 16.4207 10.8361 16.3881 10.8433Z" fill="url(#paint1_linear_36_7664)"/>
<path d="M8.3426 9.37633L7.55667 9.55242C7.53514 9.55719 7.52678 9.57035 7.53159 9.59219L7.751 10.573C7.75608 10.5948 7.76925 10.6029 7.79077 10.5981L8.57671 10.4223C8.91303 10.3473 9.09448 10.0905 9.02393 9.77602C8.95245 9.45613 8.67889 9.30129 8.3426 9.37633Z" fill="url(#paint2_linear_36_7664)"/>
<defs>
<linearGradient id="paint0_linear_36_7664" x1="14.144" y1="13.593" x2="19.5003" y2="16.7987" gradientUnits="userSpaceOnUse">
<stop stop-color="#403F67"/>
<stop offset="1" stop-color="#007F92"/>
</linearGradient>
<linearGradient id="paint1_linear_36_7664" x1="2.10239" y1="0.000244702" x2="22.545" y2="12.2349" gradientUnits="userSpaceOnUse">
<stop stop-color="#403F67"/>
<stop offset="1" stop-color="#007F92"/>
</linearGradient>
<linearGradient id="paint2_linear_36_7664" x1="7.68887" y1="9.35767" x2="9.05897" y2="10.3539" gradientUnits="userSpaceOnUse">
<stop stop-color="#403F67"/>
<stop offset="1" stop-color="#007F92"/>
</linearGradient>
</defs>
</svg>
