<svg width="20" height="18" viewBox="0 0 20 18" fill="none" xmlns="http://www.w3.org/2000/svg">
<path d="M19.4444 2.33331C19.7514 2.33331 20 2.0847 20 1.77775V0.66664C20 0.359695 19.7514 0.111084 19.4444 0.111084H0.555556C0.248611 0.111084 0 0.359695 0 0.66664V1.77775C0 2.0847 0.248611 2.33331 0.555556 2.33331H1.11042V15.6666H0.555556C0.248611 15.6666 0 15.9153 0 16.2222V17.3333C0 17.6403 0.248611 17.8889 0.555556 17.8889H8.88889V15.1111C8.88889 14.8055 9.13889 14.5555 9.44444 14.5555H10.5556C10.8611 14.5555 11.1111 14.8055 11.1111 15.1111V17.8889H19.4444C19.7514 17.8889 20 17.6403 20 17.3333V16.2222C20 15.9153 19.7514 15.6666 19.4444 15.6666H18.8889V2.33331H19.4444ZM8.88889 3.88886C8.88889 3.66664 9.11111 3.44442 9.33333 3.44442H10.6667C10.8889 3.44442 11.1111 3.66664 11.1111 3.88886V5.2222C11.1111 5.44442 10.8889 5.66664 10.6667 5.66664H9.33333C9.11111 5.66664 8.88889 5.44442 8.88889 5.2222V3.88886ZM8.88889 7.2222C8.88889 6.99997 9.11111 6.77775 9.33333 6.77775H10.6667C10.8889 6.77775 11.1111 6.99997 11.1111 7.2222V8.55553C11.1111 8.77775 10.8889 8.99997 10.6667 8.99997H9.33333C9.11111 8.99997 8.88889 8.77775 8.88889 8.55553V7.2222ZM4.44444 3.88886C4.44444 3.66664 4.66667 3.44442 4.88889 3.44442H6.22222C6.44444 3.44442 6.66667 3.66664 6.66667 3.88886V5.2222C6.66667 5.44442 6.44444 5.66664 6.22222 5.66664H4.88889C4.66667 5.66664 4.44444 5.44442 4.44444 5.2222V3.88886ZM6.22222 8.99997H4.88889C4.66667 8.99997 4.44444 8.77775 4.44444 8.55553V7.2222C4.44444 6.99997 4.66667 6.77775 4.88889 6.77775H6.22222C6.44444 6.77775 6.66667 6.99997 6.66667 7.2222V8.55553C6.66667 8.77775 6.44444 8.99997 6.22222 8.99997ZM6.66667 13.4444C6.66667 11.6034 8.15903 10.1111 10 10.1111C11.841 10.1111 13.3333 11.6034 13.3333 13.4444H6.66667ZM15.5556 8.55553C15.5556 8.77775 15.3333 8.99997 15.1111 8.99997H13.7778C13.5556 8.99997 13.3333 8.77775 13.3333 8.55553V7.2222C13.3333 6.99997 13.5556 6.77775 13.7778 6.77775H15.1111C15.3333 6.77775 15.5556 6.99997 15.5556 7.2222V8.55553ZM15.5556 5.2222C15.5556 5.44442 15.3333 5.66664 15.1111 5.66664H13.7778C13.5556 5.66664 13.3333 5.44442 13.3333 5.2222V3.88886C13.3333 3.66664 13.5556 3.44442 13.7778 3.44442H15.1111C15.3333 3.44442 15.5556 3.66664 15.5556 3.88886V5.2222Z" fill="url(#paint0_linear_36_7698)"/>
<defs>
<linearGradient id="paint0_linear_36_7698" x1="2.10238" y1="0.111084" x2="21.2068" y2="12.9739" gradientUnits="userSpaceOnUse">
<stop stop-color="#403F67"/>
<stop offset="1" stop-color="#007F92"/>
</linearGradient>
</defs>
</svg>
