<svg width="20" height="20" viewBox="0 0 20 20" fill="none" xmlns="http://www.w3.org/2000/svg">
<path d="M13.7501 5.625H16.3101C16.4649 5.62515 16.6142 5.68277 16.7289 5.78669C16.8437 5.89062 16.9158 6.03344 16.9313 6.1875L17.3126 10H16.0551L15.7426 6.875H13.7501V8.75C13.7501 8.91576 13.6842 9.07473 13.567 9.19194C13.4498 9.30915 13.2908 9.375 13.1251 9.375C12.9593 9.375 12.8003 9.30915 12.6831 9.19194C12.5659 9.07473 12.5001 8.91576 12.5001 8.75V6.875H7.50006V8.75C7.50006 8.91576 7.43421 9.07473 7.317 9.19194C7.19979 9.30915 7.04082 9.375 6.87506 9.375C6.7093 9.375 6.55032 9.30915 6.43311 9.19194C6.3159 9.07473 6.25006 8.91576 6.25006 8.75V6.875H4.25631L3.25631 16.875H10.0001V18.125H2.56506C2.47776 18.1249 2.39145 18.1065 2.31169 18.0711C2.23193 18.0356 2.16048 17.9838 2.10195 17.919C2.04343 17.8543 1.99912 17.778 1.97188 17.695C1.94464 17.6121 1.93508 17.5244 1.94381 17.4375L3.06881 6.1875C3.08429 6.03344 3.15641 5.89062 3.27118 5.78669C3.38596 5.68277 3.53522 5.62515 3.69006 5.625H6.25006V5.18875C6.25006 3.02125 7.92006 1.25 10.0001 1.25C12.0801 1.25 13.7501 3.02125 13.7501 5.18875V5.62625V5.625ZM12.5001 5.625V5.18875C12.5001 3.69625 11.3726 2.5 10.0001 2.5C8.62756 2.5 7.50006 3.69625 7.50006 5.18875V5.62625H12.5001V5.625ZM16.4338 15.075L15.0001 13.6425V18.125C15.0001 18.2908 14.9342 18.4497 14.817 18.5669C14.6998 18.6842 14.5408 18.75 14.3751 18.75C14.2093 18.75 14.0503 18.6842 13.9331 18.5669C13.8159 18.4497 13.7501 18.2908 13.7501 18.125V13.6425L12.3176 15.075C12.2599 15.1347 12.1909 15.1823 12.1147 15.2151C12.0384 15.2478 11.9564 15.2651 11.8734 15.2658C11.7904 15.2665 11.7081 15.2507 11.6313 15.2193C11.5545 15.1878 11.4847 15.1414 11.4261 15.0827C11.3674 15.0241 11.321 14.9543 11.2895 14.8775C11.2581 14.8007 11.2423 14.7184 11.243 14.6354C11.2437 14.5524 11.261 14.4704 11.2937 14.3941C11.3265 14.3179 11.3741 14.2489 11.4338 14.1912L13.9338 11.6912C14.051 11.5741 14.21 11.5083 14.3757 11.5083C14.5414 11.5083 14.7003 11.5741 14.8176 11.6912L17.3176 14.1912C17.3772 14.2489 17.4249 14.3179 17.4576 14.3941C17.4904 14.4704 17.5076 14.5524 17.5083 14.6354C17.5091 14.7184 17.4932 14.8007 17.4618 14.8775C17.4304 14.9543 17.384 15.0241 17.3253 15.0827C17.2666 15.1414 17.1968 15.1878 17.12 15.2193C17.0432 15.2507 16.9609 15.2665 16.8779 15.2658C16.7949 15.2651 16.7129 15.2478 16.6367 15.2151C16.5604 15.1823 16.4915 15.1347 16.4338 15.075Z" fill="url(#paint0_linear_36_7657)"/>
<defs>
<linearGradient id="paint0_linear_36_7657" x1="3.57713" y1="1.25" x2="20.4159" y2="10.2149" gradientUnits="userSpaceOnUse">
<stop stop-color="#403F67"/>
<stop offset="1" stop-color="#007F92"/>
</linearGradient>
</defs>
</svg>
