<svg width="17" height="17" viewBox="0 0 17 17" fill="none" xmlns="http://www.w3.org/2000/svg">
<rect width="16.48" height="16.48" fill="white"/>
<path fill-rule="evenodd" clip-rule="evenodd" d="M12.8455 6.0401C12.8455 6.90251 13.0735 7.41083 13.5751 7.9966C13.9552 8.42815 14.0767 8.98211 14.0767 9.58309C14.0767 10.1834 13.8794 10.7533 13.4843 11.2159C12.967 11.7706 12.2374 12.1247 11.4929 12.1862C10.4139 12.2782 9.3343 12.3557 8.24033 12.3557C7.14568 12.3557 6.06672 12.3093 4.98776 12.1862C4.24253 12.1247 3.51299 11.7706 2.99637 11.2159C2.60123 10.7533 2.40332 10.1834 2.40332 9.58309C2.40332 8.98211 2.52548 8.42815 2.90492 7.9966C3.42222 7.41083 3.63515 6.90251 3.63515 6.0401V5.74756C3.63515 4.59262 3.92314 3.83741 4.51619 3.0981C5.39792 2.01992 6.81128 1.37329 8.20962 1.37329H8.27104C9.69941 1.37329 11.1585 2.05104 12.0252 3.17556C12.5875 3.89965 12.8455 4.62305 12.8455 5.74756V6.0401ZM6.23054 13.7751C6.23054 13.4293 6.54788 13.2709 6.84133 13.2031C7.1846 13.1305 9.27632 13.1305 9.61959 13.2031C9.91304 13.2709 10.2304 13.4293 10.2304 13.7751C10.2133 14.1043 10.0202 14.3961 9.75335 14.5815C9.40735 14.8512 9.00129 15.022 8.5768 15.0835C8.34204 15.114 8.11137 15.1147 7.8848 15.0835C7.45963 15.022 7.05357 14.8512 6.70825 14.5808C6.44073 14.3961 6.2476 14.1043 6.23054 13.7751Z" fill="#646486"/>
</svg>
